<svg width="374" height="71" viewBox="0 0 374 71" fill="none" xmlns="http://www.w3.org/2000/svg">
<path d="M232.372 28.7862C239.427 30.3573 244.151 36.9466 244.151 44.6896V44.8865C244.151 52.5545 239.677 59.1156 232.372 60.5648V70.8169C245.834 69.227 255.411 57.9901 255.411 44.6943V44.5067C255.411 31.0702 245.834 19.9505 232.372 18.4591V28.7862Z" fill="url(#paint0_linear_16_124)"/>
<path d="M203.025 44.6898V44.8867C203.025 58.2576 212.638 69.3866 226.064 70.8452V60.5275C219.037 58.9751 214.285 52.3812 214.285 44.6945V44.5069C214.285 36.7264 218.79 30.1418 226.064 28.7161V18.464C212.638 20.021 203.025 31.2861 203.025 44.6898" fill="url(#paint1_linear_16_124)"/>
<path fill-rule="evenodd" clip-rule="evenodd" d="M25.4015 71C34.9784 71 40.6607 67.0746 45.4993 61.5265L38.7088 54.637C35.1745 58.3889 31.2617 60.8558 25.9625 60.8558C17.2977 60.8558 11.2597 53.6803 11.2597 44.6851V44.4929C11.2597 35.69 17.3296 28.4207 25.4973 28.4207C31.0793 28.4207 34.7048 31.0001 38.1479 34.7332L45.2211 26.9856C40.5877 21.8173 34.8006 18.2905 25.5885 18.2905C10.7945 18.2905 0 30.3341 0 44.6851V44.8774C0 59.2331 10.7945 71 25.4015 71Z" fill="black"/>
<path fill-rule="evenodd" clip-rule="evenodd" d="M77.8832 60.8558C80.6571 60.8558 83.3637 59.9781 85.6359 58.342V67.8672C82.5233 69.9153 78.8918 70.9725 75.1971 70.9062C63.6593 70.9062 52.395 61.4327 52.395 44.6851V44.4928C52.395 27.75 63.4677 18.2764 75.1971 18.2764C78.8691 18.2115 82.4854 19.2058 85.6359 21.1466V30.8125C83.3587 29.1896 80.6538 28.3207 77.8832 28.3221C70.1579 28.3221 63.7459 34.4471 63.7459 44.4928V44.6851C63.7459 54.4447 70.2582 60.8558 77.8832 60.8558V60.8558ZM91.9293 27.2013V0H103.189V69.851H91.9293V27.2013Z" fill="black"/>
<path fill-rule="evenodd" clip-rule="evenodd" d="M117.33 69.8511V19.3318H128.604V69.8511H117.33ZM134.897 20.6356C137.513 19.027 140.515 18.2048 143.562 18.2625C150.63 18.2625 155.656 21.8033 158.265 27.1732C159.633 30.1841 160.308 33.8141 160.308 39.0433V69.8511H149.062V41.0506C149.062 33.2044 145.336 28.8006 139.102 28.8006C137.66 28.7875 136.23 29.073 134.897 29.6401V20.6356ZM163.208 22.0425C166.581 19.52 170.663 18.2023 174.833 18.2906C185.536 18.2906 192.048 25.2738 192.048 37.6176V69.8652H180.789V41.1444C180.789 33.1059 177.14 28.8006 170.833 28.8006C169.275 28.7795 167.729 29.0992 166.3 29.7386C165.753 26.995 164.704 24.3833 163.208 22.0425" fill="black"/>
<path fill-rule="evenodd" clip-rule="evenodd" d="M266.857 69.851V19.327H278.112V69.851H266.857ZM284.424 20.7245C287.161 19.068 290.292 18.2254 293.467 18.2905C304.54 18.2905 310.961 25.9444 310.961 37.6175V69.865H299.701V41.1443C299.701 33.2981 295.884 28.8005 289.185 28.8005C287.549 28.782 285.927 29.1159 284.424 29.7807V20.7245Z" fill="black"/>
<path d="M330.243 56.6819V58.5578H323.858V57.0618L326.928 54.1071C327.584 53.4834 327.68 53.0988 327.68 52.7471C327.68 52.203 327.324 51.8794 326.622 51.8794C326.33 51.8727 326.041 51.945 325.784 52.089C325.527 52.233 325.311 52.4437 325.158 52.7002L323.434 51.7106C324.055 50.6507 325.217 49.9519 326.832 49.9519C328.72 49.9519 330.024 50.9508 330.024 52.5173C330.024 53.338 329.801 54.0837 328.629 55.1952L327.083 56.6631L330.243 56.6819Z" fill="black"/>
<path d="M333.968 54.3555C333.968 51.5744 335.491 49.9705 337.589 49.9705C339.687 49.9705 341.201 51.5744 341.201 54.3555C341.201 57.1366 339.678 58.7452 337.589 58.7452C335.501 58.7452 333.968 57.1413 333.968 54.3555ZM338.866 54.3555C338.866 52.5827 338.328 51.9214 337.589 51.9214C336.85 51.9214 336.299 52.5827 336.299 54.3555C336.299 56.1283 336.841 56.7895 337.589 56.7895C338.337 56.7895 338.866 56.1283 338.866 54.3555V54.3555Z" fill="black"/>
<path d="M345.045 54.3555C345.045 51.5744 346.568 49.9705 348.671 49.9705C350.773 49.9705 352.278 51.5744 352.278 54.3555C352.278 57.1366 350.755 58.7452 348.671 58.7452C346.587 58.7452 345.045 57.1413 345.045 54.3555ZM349.948 54.3555C349.948 52.5827 349.405 51.9214 348.671 51.9214C347.936 51.9214 347.38 52.5827 347.38 54.3555C347.38 56.1283 347.918 56.7895 348.671 56.7895C349.423 56.7895 349.948 56.1283 349.948 54.3555Z" fill="black"/>
<path d="M362.467 56.6819V58.5578H356.082V57.0618L359.156 54.1071C359.808 53.4834 359.904 53.0988 359.904 52.7471C359.904 52.203 359.553 51.8794 358.851 51.8794C358.557 51.8729 358.268 51.9451 358.01 52.0891C357.753 52.233 357.536 52.4437 357.382 52.7002L355.663 51.7106C356.283 50.6507 357.441 49.9519 359.06 49.9519C360.948 49.9519 362.253 50.9508 362.253 52.5173C362.253 53.338 362.029 54.0837 360.857 55.1952L359.311 56.6631L362.467 56.6819Z" fill="black"/>
<path d="M372.951 70.4139H346.341C346.15 70.4139 345.966 70.3358 345.831 70.1969C345.696 70.0579 345.62 69.8694 345.62 69.6729C345.62 69.4764 345.696 69.2879 345.831 69.1489C345.966 69.01 346.15 68.9319 346.341 68.9319H372.951C373.142 68.9319 373.325 69.01 373.46 69.1489C373.595 69.2879 373.671 69.4764 373.671 69.6729C373.671 69.8694 373.595 70.0579 373.46 70.1969C373.325 70.3358 373.142 70.4139 372.951 70.4139V70.4139Z" fill="black"/>
<path d="M350.542 21.0715H323.927C323.736 21.0715 323.553 20.9934 323.418 20.8544C323.282 20.7155 323.207 20.527 323.207 20.3305C323.207 20.134 323.282 19.9455 323.418 19.8065C323.553 19.6675 323.736 19.5895 323.927 19.5895H350.542C350.636 19.5895 350.73 19.6086 350.817 19.6459C350.905 19.6831 350.984 19.7377 351.051 19.8065C351.118 19.8753 351.171 19.957 351.207 20.0469C351.244 20.1368 351.262 20.2332 351.262 20.3305C351.262 20.4278 351.244 20.5241 351.207 20.614C351.171 20.7039 351.118 20.7856 351.051 20.8544C350.984 20.9233 350.905 20.9778 350.817 21.0151C350.73 21.0523 350.636 21.0715 350.542 21.0715V21.0715Z" fill="black"/>
<path d="M323.207 31.3799H327.087C329.824 31.3799 331.648 33.0073 331.648 35.6008C331.648 38.1943 329.783 39.8217 327.087 39.8217H323.207V31.3799ZM326.983 37.9129C328.378 37.9129 329.318 37.0546 329.318 35.5961C329.318 34.1375 328.387 33.298 326.983 33.298H325.519V37.9269L326.983 37.9129Z" fill="black"/>
<path d="M341.822 37.988V39.817H335.232V31.3752H341.667V33.2184H337.53V34.6253H341.179V36.4122H337.53V37.988H341.822Z" fill="black"/>
<path d="M344.882 39.0571L345.643 37.2984C346.454 37.8282 347.392 38.1157 348.352 38.1286C349.31 38.1286 349.688 37.8518 349.688 37.4391C349.688 36.1025 345.023 37.078 345.023 33.9452C345.023 32.4397 346.218 31.211 348.671 31.211C349.708 31.1943 350.732 31.4459 351.649 31.9426L350.933 33.7154C350.237 33.3082 349.454 33.0843 348.653 33.0635C347.682 33.0635 347.326 33.4058 347.326 33.8232C347.326 35.113 351.982 34.1515 351.982 37.2609C351.982 38.7335 350.787 39.9857 348.334 39.9857C347.121 40.0161 345.925 39.6942 344.882 39.0571V39.0571Z" fill="black"/>
<path d="M355.384 31.3799H359.265C362.001 31.3799 363.848 33.0073 363.848 35.6008C363.848 38.1943 361.983 39.8217 359.265 39.8217H355.384V31.3799ZM359.169 37.9129C360.565 37.9129 361.504 37.0546 361.504 35.5961C361.504 34.1375 360.565 33.298 359.169 33.298H357.706V37.9269L359.169 37.9129Z" fill="black"/>
<path d="M373.999 37.988V39.817H367.41V31.3752H373.844V33.2184H369.708V34.6253H373.356V36.4122H369.708V37.988H373.999Z" fill="black"/>
<defs>
<linearGradient id="paint0_linear_16_124" x1="243.891" y1="70.8122" x2="243.891" y2="18.4544" gradientUnits="userSpaceOnUse">
<stop stop-color="#0000FF"/>
<stop offset="1" stop-color="#00FF00"/>
</linearGradient>
<linearGradient id="paint1_linear_16_124" x1="211.079" y1="27.764" x2="231.649" y2="67.3472" gradientUnits="userSpaceOnUse">
<stop stop-color="#FF0080"/>
<stop offset="1" stop-color="#FFFF00"/>
</linearGradient>
</defs>
</svg>
