<svg width="199" height="44" viewBox="0 0 199 44" fill="none" xmlns="http://www.w3.org/2000/svg">
<g clip-path="url(#clip0_3_9)">
<path fill-rule="evenodd" clip-rule="evenodd" d="M16.1831 44C22.2894 44 25.9019 41.5673 28.9819 38.1308L24.6564 33.8621C22.4057 36.174 19.9179 37.7192 16.5381 37.7192C11.0194 37.7192 7.17426 33.2729 7.17426 27.6961V27.5768C7.17426 22.1223 11.0254 17.6149 16.2442 17.6149C19.7956 17.6149 22.1119 19.2168 24.2985 21.5287L28.8029 16.723C25.8437 13.5237 22.1656 11.3281 16.2979 11.3281C6.87447 11.3281 -0.00146484 18.8007 -0.00146484 27.6931V27.8155C-0.00146484 36.7124 6.87447 44.0015 16.1816 44.0015" fill="#231F20"/>
<path fill-rule="evenodd" clip-rule="evenodd" d="M49.6111 37.7192C51.3724 37.7169 53.0905 37.1738 54.5331 36.1635V42.067C52.7433 43.2259 50.5657 43.9493 47.8869 43.9493C40.5352 43.9493 33.3654 38.0786 33.3654 27.7021V27.5768C33.3654 17.2003 40.4188 11.3296 47.8869 11.3296C50.5717 11.3296 52.7508 12.0247 54.5331 13.109V19.1005C53.0883 18.0959 51.3709 17.5567 49.6111 17.5553C44.6891 17.5553 40.6023 21.3512 40.6023 27.5768V27.6991C40.6023 33.7473 44.7532 37.7162 49.6111 37.7162V37.7192ZM58.5603 16.8453V0H65.73V43.29H58.5603V16.8378V16.8453Z" fill="#231F20"/>
<path fill-rule="evenodd" clip-rule="evenodd" d="M74.7418 43.2885V11.9784H81.9116V43.2885H74.7418ZM85.9283 12.7958C87.4079 11.9009 89.1992 11.3252 91.4469 11.3252C95.9513 11.3252 99.1536 13.5192 100.811 16.8438C101.697 18.7067 102.117 20.9574 102.117 24.1985V43.29H94.949V25.438C94.949 20.5771 92.5775 17.8491 88.61 17.8491C87.6892 17.8386 86.7758 18.0152 85.9253 18.3681L85.9283 12.7958ZM103.958 13.6654C105.965 12.1932 108.388 11.3192 111.365 11.3192C118.185 11.3192 122.33 15.6446 122.33 23.2976V43.2841H115.161V25.4991C115.161 20.5159 112.85 17.8491 108.817 17.8491C107.824 17.8406 106.841 18.044 105.933 18.4457C105.586 16.7438 104.917 15.1238 103.962 13.6728" fill="#231F20"/>
<path fill-rule="evenodd" clip-rule="evenodd" d="M169.986 43.29V11.9799H177.156V43.29H169.986ZM181.173 12.8435C182.722 11.9143 184.603 11.3266 186.933 11.3266C193.986 11.3266 198.075 16.0712 198.075 23.3051V43.2915H190.914V25.5006C190.914 20.6382 188.483 17.8506 184.215 17.8506C183.173 17.8397 182.14 18.0464 181.182 18.4576L181.173 12.8435Z" fill="#231F20"/>
<path d="M136.498 27.5768C136.498 32.3408 139.523 36.5439 143.999 37.5014V43.8986C135.448 43.0037 129.329 35.9786 129.329 27.6932C129.329 19.4078 135.444 12.408 143.999 11.4355V17.788C139.37 18.6694 136.498 22.7458 136.498 27.5768Z" fill="url(#paint0_linear_3_9)"/>
<path d="M155.521 27.7573C155.521 22.9934 152.497 18.7903 148.02 17.8327V11.4341C156.573 12.3364 162.691 19.3555 162.691 27.641C162.691 35.9264 156.576 42.9261 148.02 43.8986V37.5417C152.652 36.6587 155.521 32.5824 155.521 27.7573Z" fill="url(#paint1_linear_3_9)"/>
</g>
<defs>
<linearGradient id="paint0_linear_3_9" x1="136.664" y1="10.2364" x2="136.664" y2="42.6949" gradientUnits="userSpaceOnUse">
<stop offset="0.37" stop-color="#FF4889"/>
<stop offset="1" stop-color="#FEFD16"/>
</linearGradient>
<linearGradient id="paint1_linear_3_9" x1="155.357" y1="45.0918" x2="155.357" y2="12.6332" gradientUnits="userSpaceOnUse">
<stop stop-color="#0161F4"/>
<stop offset="1" stop-color="#00D372"/>
</linearGradient>
<clipPath id="clip0_3_9">
<rect width="198.076" height="44" fill="white"/>
</clipPath>
</defs>
</svg>